<svg width="49" height="49" viewBox="0 0 49 49" fill="none" xmlns="http://www.w3.org/2000/svg">
<path d="M13.6938 38.1936C12.8964 38.9909 11.6037 38.9909 10.8064 38.1936C10.0091 37.3963 10.0091 36.1035 10.8064 35.3062L21.6127 24.4999L10.8064 13.6936C10.0091 12.8963 10.0091 11.6036 10.8064 10.8062C11.6037 10.0089 12.8964 10.0089 13.6938 10.8062L24.5001 21.6126L35.3064 10.8062C36.1037 10.0089 37.3964 10.0089 38.1938 10.8062C38.9911 11.6036 38.9911 12.8963 38.1938 13.6936L27.3874 24.4999L38.1938 35.3062C38.9911 36.1036 38.9911 37.3963 38.1938 38.1936C37.3964 38.9909 36.1037 38.9909 35.3064 38.1936L24.5001 27.3873L13.6938 38.1936Z" fill="white"/>
</svg>
